<svg width="40" height="31" viewBox="0 0 40 31" fill="none" xmlns="http://www.w3.org/2000/svg">
<g clip-path="url(#clip0_26_213)">
<path fill-rule="evenodd" clip-rule="evenodd" d="M17.9784 19.3778V4.36924C17.9784 2.00094 16.0585 0.0810547 13.6902 0.0810547H5.11386C2.74557 0.0810547 0.825684 2.00094 0.825684 4.36924V12.9456C0.825684 15.3139 2.74557 17.2338 5.11386 17.2338H11.5462V19.3778C11.5859 21.4547 10.1315 23.2614 8.09415 23.6661C7.61882 23.7729 7.27533 24.1869 7.25796 24.6738V28.962C7.24202 29.2947 7.37572 29.6172 7.62246 29.8411C7.85052 30.0443 8.15577 30.1383 8.45865 30.0983C13.9062 29.4845 18.0129 24.8598 17.9784 19.3778ZM26.5553 0.0810547H35.1317C37.4999 0.0810547 39.4198 2.00094 39.4198 4.36924V19.3778C39.4433 24.8516 35.3394 29.4639 29.9 30.0769C29.5971 30.1168 29.2919 30.0229 29.0639 29.8196C28.8342 29.6106 28.702 29.3153 28.6993 29.0049V24.7167C28.6971 24.2136 29.0449 23.7767 29.5356 23.6661C31.5729 23.2614 33.0273 21.4547 32.9875 19.3778V17.2338H26.5553C24.187 17.2338 22.2671 15.3139 22.2671 12.9456V4.36924C22.2671 2.00094 24.187 0.0810547 26.5553 0.0810547Z" fill="#E2E1DC"/>
</g>
<defs>
<clipPath id="clip0_26_213">
<rect width="38.6094" height="30.875" fill="white" transform="translate(0.817871 0.0810547)"/>
</clipPath>
</defs>
</svg>
