<?xml version="1.0" standalone="no"?>
<!DOCTYPE svg PUBLIC "-//W3C//DTD SVG 20010904//EN"
 "http://www.w3.org/TR/2001/REC-SVG-20010904/DTD/svg10.dtd">
<svg version="1.0" xmlns="http://www.w3.org/2000/svg"
 width="320.000000pt" height="158.000000pt" viewBox="0 0 320.000000 158.000000"
 preserveAspectRatio="xMidYMid meet">

<g transform="translate(0.000000,158.000000) scale(0.100000,-0.100000)"
fill="#000000" stroke="none">
<path d="M1895 970 c-110 -4 -348 -8 -530 -9 -331 -2 -401 -6 -660 -36 -157
-19 -213 -40 -263 -100 -50 -62 -66 -149 -36 -206 11 -21 34 -40 77 -59 98
-46 177 -53 487 -46 151 3 526 10 834 16 553 9 670 16 776 46 89 26 126 57
167 142 28 60 26 103 -8 146 -28 36 -101 76 -168 93 -68 18 -385 24 -676 13z
m570 -16 c96 -12 131 -22 178 -46 96 -51 121 -99 92 -174 -44 -116 -116 -152
-345 -174 -115 -11 -1189 -35 -1530 -35 -234 1 -303 10 -381 52 -55 30 -71 54
-71 115 -2 87 86 187 176 203 145 26 328 38 711 46 357 8 735 18 1000 27 28 1
105 -5 170 -14z"/>
</g>
</svg>
