<svg width="28" height="28" viewBox="0 0 28 28" fill="none" xmlns="http://www.w3.org/2000/svg">
<path d="M24.5 1.1665H3.5C2.57174 1.1665 1.6815 1.53525 1.02513 2.19163C0.368749 2.84801 0 3.73825 0 4.6665L0 26.8332H28V4.6665C28 3.73825 27.6313 2.84801 26.9749 2.19163C26.3185 1.53525 25.4283 1.1665 24.5 1.1665V1.1665ZM3.5 3.49984H24.5C24.8094 3.49984 25.1062 3.62275 25.325 3.84155C25.5438 4.06034 25.6667 4.35708 25.6667 4.6665V5.44467L16.4757 14.6368C15.8182 15.2917 14.928 15.6594 14 15.6594C13.072 15.6594 12.1818 15.2917 11.5243 14.6368L2.33333 5.44467V4.6665C2.33333 4.35708 2.45625 4.06034 2.67504 3.84155C2.89383 3.62275 3.19058 3.49984 3.5 3.49984V3.49984ZM2.33333 24.4998V8.74984L9.87467 16.2865C10.9697 17.3788 12.4533 17.9922 14 17.9922C15.5467 17.9922 17.0303 17.3788 18.1253 16.2865L25.6667 8.74984V24.4998H2.33333Z" fill="white"/>
</svg>
