<svg width="28" height="28" viewBox="0 0 28 28" fill="none" xmlns="http://www.w3.org/2000/svg">
    <path d="M19.2498 28.0002C10.7938 28.0002 -0.000217173 17.2062 -0.000217173 8.75023C-0.00830454 7.84001 0.164622 6.93727 0.508511 6.09447C0.8524 5.25167 1.36039 4.48564 2.00295 3.84091L5.70128 0.142578L13.0093 7.45174L9.03562 11.4254C10.4676 14.8256 13.1693 17.5332 16.5664 18.9726L20.5494 14.9896L27.8598 22.2987L24.1591 25.9994C23.5142 26.6415 22.748 27.149 21.9052 27.4925C21.0625 27.836 20.1598 28.0085 19.2498 28.0002ZM5.70128 3.44307L3.65145 5.49291C3.22674 5.92134 2.89146 6.42996 2.66514 6.98917C2.43881 7.54837 2.32595 8.14701 2.33312 8.75023C2.33312 16.0232 11.9768 25.6669 19.2498 25.6669C19.8528 25.6738 20.4512 25.5611 21.0103 25.3352C21.5694 25.1093 22.0782 24.7748 22.5071 24.3509L24.5593 22.2987L20.5483 18.2889L17.1334 21.7002L16.4264 21.4296C14.175 20.5917 12.13 19.2796 10.4299 17.5824C8.72982 15.8851 7.41441 13.8423 6.57278 11.5922L6.28578 10.8771L9.70995 7.45174L5.70128 3.44307Z" fill="#FFFFFF"/>
</svg>

